<svg width="252" height="38" viewBox="0 0 252 38" fill="none" xmlns="http://www.w3.org/2000/svg">
<rect x="1" y="1" width="250" height="36" rx="18" fill="white" stroke="#003049" stroke-width="2"/>
<path d="M234.25 30.25L228.821 24.8213M228.821 24.8213C229.75 23.8927 230.486 22.7902 230.989 21.5769C231.492 20.3637 231.75 19.0633 231.75 17.75C231.75 16.4368 231.492 15.1364 230.989 13.9231C230.486 12.7098 229.75 11.6074 228.821 10.6788C227.893 9.75015 226.79 9.01354 225.577 8.51098C224.364 8.00842 223.063 7.74976 221.75 7.74976C220.437 7.74976 219.136 8.00842 217.923 8.51098C216.71 9.01354 215.607 9.75015 214.679 10.6788C212.803 12.5542 211.75 15.0978 211.75 17.75C211.75 20.4022 212.803 22.9459 214.679 24.8213C216.554 26.6967 219.098 27.7503 221.75 27.7503C224.402 27.7503 226.946 26.6967 228.821 24.8213Z" stroke="#003049" stroke-width="3" stroke-linecap="round" stroke-linejoin="round"/>
</svg>
