<svg width="48" height="49" viewBox="0 0 48 49" fill="none" xmlns="http://www.w3.org/2000/svg">
<path d="M32.132 18.3648C32.2753 18.2236 32.3897 18.0547 32.4684 17.8679C32.5471 17.6811 32.5885 17.4802 32.5904 17.2769C32.5922 17.0736 32.5543 16.8719 32.479 16.6837C32.4037 16.4955 32.2924 16.3244 32.1516 16.1806C32.0108 16.0368 31.8434 15.923 31.6591 15.8459C31.4748 15.7688 31.2773 15.73 31.0781 15.7317C30.8789 15.7333 30.6821 15.7755 30.499 15.8556C30.316 15.9358 30.1504 16.0524 30.012 16.1985L24 22.3338L17.99 16.1985C17.8527 16.0481 17.6871 15.9274 17.5031 15.8437C17.3191 15.76 17.1204 15.715 16.919 15.7114C16.7176 15.7078 16.5176 15.7456 16.3308 15.8226C16.144 15.8996 15.9744 16.0143 15.8319 16.1597C15.6895 16.3051 15.5772 16.4783 15.5017 16.6689C15.4263 16.8596 15.3893 17.0638 15.3928 17.2694C15.3964 17.475 15.4404 17.6778 15.5224 17.8656C15.6044 18.0535 15.7226 18.2225 15.87 18.3627L21.876 24.5L15.866 30.6352C15.601 30.9254 15.4568 31.3094 15.4636 31.7061C15.4705 32.1028 15.6279 32.4813 15.9028 32.7618C16.1776 33.0424 16.5483 33.2031 16.9369 33.2101C17.3256 33.2171 17.7016 33.0698 17.986 32.7993L24 26.6641L30.01 32.8014C30.2943 33.0719 30.6704 33.2191 31.059 33.2121C31.4476 33.2051 31.8184 33.0444 32.0932 32.7639C32.3681 32.4833 32.5255 32.1048 32.5323 31.7081C32.5392 31.3114 32.395 30.9275 32.13 30.6372L26.124 24.5L32.132 18.3648Z" fill="#003049"/>
</svg>
