<svg width="28" height="31" viewBox="0 0 28 31" fill="none" xmlns="http://www.w3.org/2000/svg">
<g clip-path="url(#clip0_480_122)">
<path d="M25.6183 15.5675L25.5427 15.4993L25.6183 15.5675Z" fill="#003049" stroke="#003049" stroke-width="3"/>
<mask id="path-2-inside-1_480_122" fill="white">
<path d="M21.7778 27.5554H17.8889V18.9443H10.1111V27.5554H6.22224V15.4999L4.66669 17.2221V27.5554C4.66669 28.0122 4.83058 28.4503 5.1223 28.7732C5.41402 29.0962 5.80968 29.2777 6.22224 29.2777H11.6667V20.6665H16.3334V29.2777H21.7778C22.1904 29.2777 22.586 29.0962 22.8777 28.7732C23.1695 28.4503 23.3334 28.0122 23.3334 27.5554V17.0154L21.7778 15.2932V27.5554Z"/>
</mask>
<path d="M21.7778 27.5554H17.8889V18.9443H10.1111V27.5554H6.22224V15.4999L4.66669 17.2221V27.5554C4.66669 28.0122 4.83058 28.4503 5.1223 28.7732C5.41402 29.0962 5.80968 29.2777 6.22224 29.2777H11.6667V20.6665H16.3334V29.2777H21.7778C22.1904 29.2777 22.586 29.0962 22.8777 28.7732C23.1695 28.4503 23.3334 28.0122 23.3334 27.5554V17.0154L21.7778 15.2932V27.5554Z" fill="#003049"/>
<path d="M21.7778 27.5554V30.5554H24.7778V27.5554H21.7778ZM17.8889 27.5554H14.8889V30.5554H17.8889V27.5554ZM17.8889 18.9443H20.8889V15.9443H17.8889V18.9443ZM10.1111 18.9443V15.9443H7.11113V18.9443H10.1111ZM10.1111 27.5554V30.5554H13.1111V27.5554H10.1111ZM6.22224 27.5554H3.22224V30.5554H6.22224V27.5554ZM6.22224 15.4999H9.22224V7.70275L3.99593 13.489L6.22224 15.4999ZM4.66669 17.2221L2.44038 15.2112L1.66669 16.0678V17.2221H4.66669ZM4.66669 27.5554H1.66669H4.66669ZM11.6667 29.2777V32.2777H14.6667V29.2777H11.6667ZM11.6667 20.6665V17.6665H8.66669V20.6665H11.6667ZM16.3334 20.6665H19.3334V17.6665H16.3334V20.6665ZM16.3334 29.2777H13.3334V32.2777H16.3334V29.2777ZM23.3334 17.0154H26.3334V15.8612L25.5597 15.0046L23.3334 17.0154ZM21.7778 15.2932L24.0041 13.2824L18.7778 7.49609V15.2932H21.7778ZM21.7778 24.5554H17.8889V30.5554H21.7778V24.5554ZM20.8889 27.5554V18.9443H14.8889V27.5554H20.8889ZM17.8889 15.9443H10.1111V21.9443H17.8889V15.9443ZM7.11113 18.9443V27.5554H13.1111V18.9443H7.11113ZM10.1111 24.5554H6.22224V30.5554H10.1111V24.5554ZM9.22224 27.5554V15.4999H3.22224V27.5554H9.22224ZM3.99593 13.489L2.44038 15.2112L6.89299 19.233L8.44855 17.5107L3.99593 13.489ZM1.66669 17.2221V27.5554H7.66669V17.2221H1.66669ZM1.66669 27.5554C1.66669 28.7149 2.0799 29.8806 2.89599 30.7841L7.34861 26.7624C7.58125 27.0199 7.66669 27.3095 7.66669 27.5554H1.66669ZM2.89599 30.7841C3.72121 31.6977 4.9098 32.2777 6.22224 32.2777V26.2777C6.70956 26.2777 7.10683 26.4947 7.34861 26.7624L2.89599 30.7841ZM6.22224 32.2777H11.6667V26.2777H6.22224V32.2777ZM14.6667 29.2777V20.6665H8.66669V29.2777H14.6667ZM11.6667 23.6665H16.3334V17.6665H11.6667V23.6665ZM13.3334 20.6665V29.2777H19.3334V20.6665H13.3334ZM16.3334 32.2777H21.7778V26.2777H16.3334V32.2777ZM21.7778 32.2777C23.0902 32.2777 24.2788 31.6977 25.1041 30.7841L20.6514 26.7624C20.8932 26.4947 21.2905 26.2777 21.7778 26.2777V32.2777ZM25.1041 30.7841C25.9201 29.8806 26.3334 28.7149 26.3334 27.5554H20.3334C20.3334 27.3095 20.4188 27.0199 20.6514 26.7624L25.1041 30.7841ZM26.3334 27.5554V17.0154H20.3334V27.5554H26.3334ZM25.5597 15.0046L24.0041 13.2824L19.5515 17.3041L21.107 19.0263L25.5597 15.0046ZM18.7778 15.2932V27.5554H24.7778V15.2932H18.7778Z" fill="#003049" mask="url(#path-2-inside-1_480_122)"/>
</g>
<defs>
<clipPath id="clip0_480_122">
<rect width="28" height="31" fill="white"/>
</clipPath>
</defs>
</svg>
