<svg width="48" height="48" viewBox="0 0 48 48" fill="none" xmlns="http://www.w3.org/2000/svg">
<path fill-rule="evenodd" clip-rule="evenodd" d="M39.5 24C39.5 23.6022 39.342 23.2206 39.0607 22.9393C38.7794 22.658 38.3978 22.5 38 22.5H10C9.60218 22.5 9.22064 22.658 8.93934 22.9393C8.65804 23.2206 8.5 23.6022 8.5 24C8.5 24.3978 8.65804 24.7794 8.93934 25.0607C9.22064 25.342 9.60218 25.5 10 25.5H38C38.3978 25.5 38.7794 25.342 39.0607 25.0607C39.342 24.7794 39.5 24.3978 39.5 24ZM39.5 14C39.5 13.6022 39.342 13.2206 39.0607 12.9393C38.7794 12.658 38.3978 12.5 38 12.5H10C9.60218 12.5 9.22064 12.658 8.93934 12.9393C8.65804 13.2206 8.5 13.6022 8.5 14C8.5 14.3978 8.65804 14.7794 8.93934 15.0607C9.22064 15.342 9.60218 15.5 10 15.5H38C38.3978 15.5 38.7794 15.342 39.0607 15.0607C39.342 14.7794 39.5 14.3978 39.5 14ZM39.5 34C39.5 33.6022 39.342 33.2206 39.0607 32.9393C38.7794 32.658 38.3978 32.5 38 32.5H10C9.60218 32.5 9.22064 32.658 8.93934 32.9393C8.65804 33.2206 8.5 33.6022 8.5 34C8.5 34.3978 8.65804 34.7794 8.93934 35.0607C9.22064 35.342 9.60218 35.5 10 35.5H38C38.3978 35.5 38.7794 35.342 39.0607 35.0607C39.342 34.7794 39.5 34.3978 39.5 34Z" fill="#003049"/>
</svg>
