<svg width="40" height="39" viewBox="0 0 40 39" fill="none" xmlns="http://www.w3.org/2000/svg">
<path d="M20.08 32.76C12.56 32.76 6.47998 26.832 6.47998 19.5C6.47998 12.168 12.56 6.23999 20.08 6.23999C27.6 6.23999 33.68 12.168 33.68 19.5C33.68 26.832 27.52 32.76 20.08 32.76ZM20.08 7.79999C13.44 7.79999 8.07998 13.026 8.07998 19.5C8.07998 25.974 13.44 31.2 20.08 31.2C26.72 31.2 32.08 25.974 32.08 19.5C32.08 13.026 26.64 7.79999 20.08 7.79999Z" fill="#EE9648"/>
<path d="M11.8399 29.0941L10.3999 28.4701C10.7999 27.5341 12.0799 26.9881 13.4399 26.3641C14.7999 25.7401 16.4799 25.0381 16.4799 24.1801V23.0101C15.9999 22.6201 15.1999 21.7621 15.0399 20.5141C14.6399 20.1241 13.9999 19.4221 13.9999 18.4861C13.9999 17.9401 14.2399 17.4721 14.3999 17.1601C14.2399 16.5361 14.0799 15.3661 14.0799 14.4301C14.0799 11.3881 16.2399 9.36011 19.6799 9.36011C20.6399 9.36011 21.8399 9.59411 22.4799 10.2961C23.9999 10.6081 25.2799 12.3241 25.2799 14.4301C25.2799 15.7561 25.0399 16.8481 24.8799 17.3941C25.0399 17.6281 25.1999 18.0181 25.1999 18.4861C25.1999 19.5001 24.6399 20.2021 24.1599 20.5141C23.9999 21.7621 23.2799 22.5421 22.7999 22.9321V24.1801C22.7999 24.8821 24.2399 25.4281 25.5199 25.8961C27.0399 26.4421 28.6399 27.0661 29.1999 28.3141L27.6799 28.8601C27.4399 28.2361 26.1599 27.7681 24.9599 27.3781C23.1999 26.7541 21.1999 26.0521 21.1999 24.2581V22.2301L21.5999 21.9961C21.5999 21.9961 22.5599 21.3721 22.5599 20.1241V19.5781L23.0399 19.3441C23.1199 19.3441 23.5199 19.1101 23.5199 18.4861C23.5199 18.3301 23.3599 18.0961 23.2799 18.0181L22.9599 17.7061L23.1199 17.3161C23.1199 17.3161 23.5199 16.0681 23.5199 14.5081C23.5199 13.0261 22.6399 11.9341 21.9199 11.9341H21.4399L21.1999 11.5441C21.1999 11.2321 20.6399 10.9201 19.6799 10.9201C17.1999 10.9201 15.6799 12.2461 15.6799 14.4301C15.6799 15.4441 16.0799 17.1601 16.0799 17.1601L16.1599 17.5501L15.8399 17.9401C15.7599 17.9401 15.5999 18.1741 15.5999 18.4861C15.5999 18.8761 16.0799 19.3441 16.3199 19.5001L16.6399 19.7341V20.1241C16.6399 21.2941 17.6799 21.9181 17.6799 21.9961L18.0799 22.2301V24.2581C18.0799 26.1301 15.9999 27.0661 14.0799 27.8461C13.1999 28.1581 11.9999 28.7041 11.8399 29.0941Z" fill="#EE9648"/>
</svg>
