<svg width="30" height="30" viewBox="0 0 30 30" fill="none" xmlns="http://www.w3.org/2000/svg">
<path d="M26.25 26.25L20.8213 20.8213M20.8213 20.8213C21.7499 19.8927 22.4865 18.7902 22.989 17.5769C23.4916 16.3637 23.7503 15.0633 23.7503 13.75C23.7503 12.4368 23.4916 11.1364 22.989 9.92308C22.4865 8.70979 21.7499 7.60737 20.8213 6.67876C19.8927 5.75015 18.7902 5.01354 17.5769 4.51098C16.3637 4.00842 15.0633 3.74976 13.75 3.74976C12.4368 3.74976 11.1364 4.00842 9.92308 4.51098C8.70979 5.01354 7.60737 5.75015 6.67876 6.67876C4.80335 8.55418 3.74976 11.0978 3.74976 13.75C3.74976 16.4022 4.80335 18.9459 6.67876 20.8213C8.55418 22.6967 11.0978 23.7503 13.75 23.7503C16.4022 23.7503 18.9459 22.6967 20.8213 20.8213Z" stroke="#003049" stroke-width="3" stroke-linecap="round" stroke-linejoin="round"/>
</svg>
