<svg width="25" height="25" viewBox="0 0 25 25" fill="none" xmlns="http://www.w3.org/2000/svg">
<path d="M12.5 15.625C14.2259 15.625 15.625 14.2259 15.625 12.5C15.625 10.7741 14.2259 9.375 12.5 9.375C10.7741 9.375 9.375 10.7741 9.375 12.5C9.375 14.2259 10.7741 15.625 12.5 15.625Z" stroke="#003049" stroke-width="1.5"/>
<path d="M14.3385 2.24159C13.9562 2.08325 13.4708 2.08325 12.5 2.08325C11.5291 2.08325 11.0437 2.08325 10.6614 2.24159C10.4085 2.34629 10.1787 2.49981 9.98511 2.69338C9.79154 2.88695 9.63802 3.11677 9.53331 3.36971C9.43748 3.602 9.39894 3.87388 9.38436 4.26867C9.37786 4.55407 9.29894 4.83315 9.15499 5.07968C9.01105 5.32621 8.8068 5.53211 8.56144 5.67804C8.31237 5.81767 8.0319 5.89169 7.74637 5.89315C7.46084 5.89461 7.17963 5.82345 6.92915 5.68638C6.57915 5.50096 6.32602 5.39888 6.07498 5.36554C5.5274 5.29353 4.97363 5.4419 4.5354 5.77804C4.20831 6.03117 3.96456 6.45096 3.47915 7.29159C2.99373 8.13221 2.74998 8.552 2.69686 8.96346C2.66106 9.23476 2.67906 9.51046 2.74984 9.77481C2.82062 10.0392 2.94278 10.287 3.10936 10.5041C3.26352 10.7041 3.47915 10.8718 3.81352 11.0822C4.30623 11.3916 4.6229 11.9187 4.6229 12.4999C4.6229 13.0812 4.30623 13.6083 3.81352 13.9166C3.47915 14.128 3.26248 14.2958 3.10936 14.4958C2.94278 14.7129 2.82062 14.9607 2.74984 15.225C2.67906 15.4894 2.66106 15.7651 2.69686 16.0364C2.75102 16.4468 2.99373 16.8676 3.47811 17.7083C3.96456 18.5489 4.20727 18.9687 4.5354 19.2218C4.75252 19.3884 5.00033 19.5105 5.26467 19.5813C5.52902 19.6521 5.80472 19.6701 6.07602 19.6343C6.32602 19.601 6.57915 19.4989 6.92915 19.3135C7.17963 19.1764 7.46084 19.1052 7.74637 19.1067C8.0319 19.1081 8.31237 19.1822 8.56144 19.3218C9.06456 19.6135 9.36352 20.1499 9.38436 20.7312C9.39894 21.127 9.43644 21.3978 9.53331 21.6301C9.63802 21.8831 9.79154 22.1129 9.98511 22.3065C10.1787 22.5 10.4085 22.6535 10.6614 22.7583C11.0437 22.9166 11.5291 22.9166 12.5 22.9166C13.4708 22.9166 13.9562 22.9166 14.3385 22.7583C14.5915 22.6535 14.8213 22.5 15.0149 22.3065C15.2084 22.1129 15.3619 21.8831 15.4666 21.6301C15.5625 21.3978 15.601 21.127 15.6156 20.7312C15.6364 20.1499 15.9354 19.6124 16.4385 19.3218C16.6876 19.1822 16.9681 19.1081 17.2536 19.1067C17.5391 19.1052 17.8203 19.1764 18.0708 19.3135C18.4208 19.4989 18.6739 19.601 18.9239 19.6343C19.1952 19.6701 19.4709 19.6521 19.7353 19.5813C19.9996 19.5105 20.2474 19.3884 20.4646 19.2218C20.7927 18.9697 21.0354 18.5489 21.5208 17.7083C22.0062 16.8676 22.25 16.4478 22.3031 16.0364C22.3389 15.7651 22.3209 15.4894 22.2501 15.225C22.1793 14.9607 22.0572 14.7129 21.8906 14.4958C21.7364 14.2958 21.5208 14.128 21.1864 13.9176C20.9424 13.7693 20.7401 13.5614 20.5985 13.3134C20.4569 13.0654 20.3807 12.7855 20.3771 12.4999C20.3771 11.9187 20.6937 11.3916 21.1864 11.0833C21.5208 10.8718 21.7375 10.7041 21.8906 10.5041C22.0572 10.287 22.1793 10.0392 22.2501 9.77481C22.3209 9.51046 22.3389 9.23476 22.3031 8.96346C22.2489 8.55304 22.0062 8.13221 21.5219 7.29159C21.0354 6.45096 20.7927 6.03117 20.4646 5.77804C20.2474 5.61147 19.9996 5.48931 19.7353 5.41853C19.4709 5.34775 19.1952 5.32975 18.9239 5.36554C18.6739 5.39888 18.4208 5.50096 18.0698 5.68638C17.8194 5.82327 17.5384 5.89432 17.2531 5.89286C16.9677 5.8914 16.6875 5.81749 16.4385 5.67804C16.1932 5.53211 15.9889 5.32621 15.845 5.07968C15.701 4.83315 15.6221 4.55407 15.6156 4.26867C15.601 3.87284 15.5635 3.602 15.4666 3.36971C15.3619 3.11677 15.2084 2.88695 15.0149 2.69338C14.8213 2.49981 14.5915 2.34629 14.3385 2.24159Z" stroke="#003049" stroke-width="1.5"/>
</svg>
