<svg width="29" height="31" viewBox="0 0 29 31" fill="none" xmlns="http://www.w3.org/2000/svg">
<path d="M26.3484 12.9702H25.3751V12.9166H14.5001V18.0833H21.329C20.3327 21.0909 17.6556 23.2499 14.5001 23.2499C10.4963 23.2499 7.25008 19.7799 7.25008 15.4999C7.25008 11.22 10.4963 7.74992 14.5001 7.74992C16.3482 7.74992 18.0296 8.49521 19.3099 9.71261L22.7276 6.05913C20.5695 3.90915 17.6828 2.58325 14.5001 2.58325C7.82706 2.58325 2.41675 8.36669 2.41675 15.4999C2.41675 22.6331 7.82706 28.4166 14.5001 28.4166C21.1731 28.4166 26.5834 22.6331 26.5834 15.4999C26.5834 14.6339 26.5 13.7885 26.3484 12.9702Z" fill="#FFC107"/>
<path d="M3.80981 9.48785L7.77979 12.6001C8.854 9.75717 11.4555 7.74992 14.4999 7.74992C16.3481 7.74992 18.0295 8.49521 19.3097 9.7126L22.7275 6.05913C20.5694 3.90915 17.6827 2.58325 14.4999 2.58325C9.85873 2.58325 5.83377 5.38423 3.80981 9.48785Z" fill="#FF3D00"/>
<path d="M14.5001 28.4166C17.6212 28.4166 20.4572 27.1398 22.6014 25.0635L18.8616 21.6806C17.6077 22.7 16.0754 23.2513 14.5001 23.25C11.3572 23.25 8.68863 21.1077 7.68329 18.1182L3.74292 21.3635C5.74271 25.5465 9.80392 28.4166 14.5001 28.4166Z" fill="#4CAF50"/>
<path d="M26.3483 12.9704H25.375V12.9167H14.5V18.0834H21.3289C20.8523 19.5148 19.9939 20.7657 18.8597 21.6814L18.8615 21.6801L22.6013 25.0629C22.3366 25.32 26.5833 21.9584 26.5833 15.5001C26.5833 14.634 26.5 13.7886 26.3483 12.9704Z" fill="#1976D2"/>
</svg>
