<svg width="29" height="31" viewBox="0 0 29 31" fill="none" xmlns="http://www.w3.org/2000/svg">
<g clip-path="url(#clip0_238_67)">
<path d="M29 15.5C29 6.93964 22.5081 0 14.5 0C6.49192 0 0 6.93952 0 15.5C0 23.2364 5.30247 29.649 12.2344 30.8117V19.9805H8.55273V15.5H12.2344V12.0852C12.2344 8.20047 14.3992 6.05469 17.7112 6.05469C19.2977 6.05469 20.957 6.35742 20.957 6.35742V10.1719H19.1287C17.3273 10.1719 16.7656 11.3667 16.7656 12.5925V15.5H20.7871L20.1442 19.9805H16.7656V30.8117C23.6975 29.649 29 23.2366 29 15.5Z" fill="#1877F2"/>
<path d="M20.1442 19.9805L20.7871 15.5H16.7656V12.5925C16.7656 11.3666 17.3274 10.1719 19.1287 10.1719H20.957V6.35742C20.957 6.35742 19.2977 6.05469 17.7112 6.05469C14.3992 6.05469 12.2344 8.20047 12.2344 12.0852V15.5H8.55273V19.9805H12.2344V30.8117C12.9839 30.9373 13.7414 31.0002 14.5 31C15.2586 31.0002 16.0161 30.9373 16.7656 30.8117V19.9805H20.1442Z" fill="white"/>
</g>
<defs>
<clipPath id="clip0_238_67">
<rect width="29" height="31" fill="white"/>
</clipPath>
</defs>
</svg>
