<svg width="40" height="40" viewBox="0 0 40 40" fill="none" xmlns="http://www.w3.org/2000/svg">
<circle cx="20" cy="20" r="20" fill="#D9D9D9"/>
<path d="M22.2174 28.1957C22.2174 28.9163 21.9311 29.6075 21.4215 30.1171C20.9119 30.6267 20.2207 30.913 19.5 30.913C18.7793 30.913 18.0881 30.6267 17.5785 30.1171C17.0689 29.6075 16.7826 28.9163 16.7826 28.1957M7 7L32 32M25.4783 25.4783H30.913V25.2065L29.9913 24.2196C28.1173 22.2113 26.9251 19.6626 26.5848 16.937L26.2196 14.0196C26.0269 12.4708 25.3051 11.0362 24.1765 9.95833C23.0478 8.88047 21.5815 8.22555 20.0255 8.10436C18.4695 7.98316 16.9195 8.40314 15.6375 9.29323C14.3556 10.1833 13.4204 11.4889 12.9902 12.9891M21.6739 25.4783H8.08696V25.2065L9.0087 24.2196C10.8827 22.2113 12.0749 19.6626 12.4152 16.937L12.4957 16.3" stroke="#003049" stroke-width="2"/>
</svg>
