<svg width="15" height="16" viewBox="0 0 15 16" fill="none" xmlns="http://www.w3.org/2000/svg">
<path d="M7.50001 15.8678C5.94909 15.8678 4.68699 14.7578 4.68699 13.3939V9.46526C3.61523 10.3097 1.85053 10.2726 0.822838 9.37042C0.295938 8.90628 0 8.27722 0 7.62135C0 6.96549 0.295938 6.33643 0.822838 5.87229L7.50001 0L14.1772 5.87229C14.7041 6.33643 15 6.96549 15 7.62135C15 8.27722 14.7041 8.90628 14.1772 9.37042C13.1514 10.2734 11.3838 10.3105 10.313 9.46526V13.3939C10.313 14.7578 9.05092 15.8678 7.50001 15.8678ZM6.56233 5.48883V13.3939C6.57313 13.6062 6.67664 13.8067 6.85131 13.9536C7.02597 14.1005 7.25833 14.1824 7.50001 14.1824C7.74168 14.1824 7.97404 14.1005 8.1487 13.9536C8.32337 13.8067 8.42688 13.6062 8.43768 13.3939V5.48883L11.5254 8.20438C11.7039 8.35449 11.9414 8.43826 12.1884 8.43826C12.4353 8.43826 12.6728 8.35449 12.8513 8.20438C12.9385 8.12786 13.0076 8.03698 13.0548 7.93694C13.1019 7.8369 13.1262 7.72966 13.1262 7.62135C13.1262 7.51305 13.1019 7.40581 13.0548 7.30577C13.0076 7.20573 12.9385 7.11485 12.8513 7.03833L7.50001 2.33209L2.14871 7.03833C2.06155 7.11485 1.99241 7.20573 1.94524 7.30577C1.89806 7.40581 1.87378 7.51305 1.87378 7.62135C1.87378 7.72966 1.89806 7.8369 1.94524 7.93694C1.99241 8.03698 2.06155 8.12786 2.14871 8.20438C2.32721 8.35449 2.56467 8.43826 2.81164 8.43826C3.05862 8.43826 3.29607 8.35449 3.47458 8.20438L6.56233 5.48883Z" fill="#31E238"/>
</svg>
