<svg width="15" height="16" viewBox="0 0 15 16" fill="none" xmlns="http://www.w3.org/2000/svg">
<path d="M7.38612 15.8673C5.83525 15.8507 4.58851 14.7273 4.60735 13.3634L4.66161 9.43492C3.57822 10.2679 1.81408 10.2119 0.79888 9.29881C0.278404 8.82905 -0.00883685 8.19685 0.000221313 7.541C0.00927947 6.88516 0.313897 6.25927 0.847193 5.80077L7.60527 -2.07763e-05L14.2011 5.94342C14.7216 6.41318 15.0089 7.04539 14.9998 7.70123C14.9907 8.35708 14.6861 8.98296 14.1528 9.44146C13.1146 10.3335 11.3466 10.3517 10.2875 9.49501L10.2332 13.4235C10.2144 14.7874 8.93699 15.8839 7.38612 15.8673ZM6.59182 5.47863L6.48264 13.3834C6.49051 13.5959 6.59125 13.7975 6.76388 13.9462C6.93651 14.095 7.16773 14.1794 7.4094 14.182C7.65106 14.1846 7.88455 14.1051 8.06124 13.9601C8.23793 13.8151 8.3442 13.6157 8.35793 13.4035L8.46711 5.49867L11.5173 8.24712C11.6937 8.39913 11.93 8.48545 12.177 8.48808C12.4239 8.49072 12.6625 8.40948 12.8431 8.26129C12.9313 8.1857 13.0017 8.09556 13.0503 7.99603C13.0988 7.89649 13.1246 7.78952 13.1261 7.68122C13.1276 7.57292 13.1048 7.46542 13.059 7.36488C13.0132 7.26433 12.9453 7.17272 12.8592 7.09527L7.57306 2.332L2.15692 6.98095C2.06871 7.05653 1.99832 7.14667 1.94976 7.2462C1.90121 7.34574 1.87544 7.45272 1.87395 7.56102C1.87245 7.66932 1.89525 7.77681 1.94105 7.87736C1.98684 7.9779 2.05472 8.06951 2.14082 8.14696C2.31724 8.29897 2.55353 8.38528 2.8005 8.38792C3.04747 8.39056 3.28608 8.30932 3.46665 8.16112L6.59182 5.47863Z" fill="#EE0C0C"/>
</svg>
