<svg width="21" height="18" viewBox="0 0 21 18" fill="none" xmlns="http://www.w3.org/2000/svg">
<path d="M19.5 0H1.5C1.10218 0 0.720644 0.189642 0.43934 0.527208C0.158035 0.864773 0 1.32261 0 1.8V16.2C0 16.6774 0.158035 17.1352 0.43934 17.4728C0.720644 17.8104 1.10218 18 1.5 18H19.5C19.8978 18 20.2794 17.8104 20.5607 17.4728C20.842 17.1352 21 16.6774 21 16.2V1.8C21 1.32261 20.842 0.864773 20.5607 0.527208C20.2794 0.189642 19.8978 0 19.5 0ZM17.85 1.8L10.5 7.902L3.15 1.8H17.85ZM1.5 16.2V2.619L10.0725 9.738C10.198 9.84251 10.3472 9.89852 10.5 9.89852C10.6528 9.89852 10.802 9.84251 10.9275 9.738L19.5 2.619V16.2H1.5Z" fill="#EE9648"/>
<path d="M19.5 0H1.5C1.10218 0 0.720644 0.189642 0.43934 0.527208C0.158035 0.864773 0 1.32261 0 1.8V16.2C0 16.6774 0.158035 17.1352 0.43934 17.4728C0.720644 17.8104 1.10218 18 1.5 18H19.5C19.8978 18 20.2794 17.8104 20.5607 17.4728C20.842 17.1352 21 16.6774 21 16.2V1.8C21 1.32261 20.842 0.864773 20.5607 0.527208C20.2794 0.189642 19.8978 0 19.5 0ZM17.85 1.8L10.5 7.902L3.15 1.8H17.85ZM1.5 16.2V2.619L10.0725 9.738C10.198 9.84251 10.3472 9.89852 10.5 9.89852C10.6528 9.89852 10.802 9.84251 10.9275 9.738L19.5 2.619V16.2H1.5Z" stroke="black"/>
</svg>
