<svg width="25" height="25" viewBox="0 0 25 25" fill="none" xmlns="http://www.w3.org/2000/svg">
<g clip-path="url(#clip0_518_46)">
<path d="M17.1875 1.17188V3.125H20.7031C21.0139 3.125 21.312 3.24847 21.5318 3.46823C21.7515 3.688 21.875 3.98607 21.875 4.29688C21.875 4.60768 21.7515 4.90575 21.5318 5.12552C21.312 5.34528 21.0139 5.46875 20.7031 5.46875H4.29688C3.98607 5.46875 3.688 5.34528 3.46823 5.12552C3.24846 4.90575 3.125 4.60768 3.125 4.29688C3.125 3.98607 3.24846 3.688 3.46823 3.46823C3.688 3.24847 3.98607 3.125 4.29688 3.125H7.8125V1.17188C7.8125 -0.3375 9.0375 -1.5625 10.5469 -1.5625H14.4531C15.9625 -1.5625 17.1875 -0.3375 17.1875 1.17188ZM7.025 8.86719L8.05625 19.1797C8.06594 19.2761 8.11112 19.3655 8.18302 19.4305C8.25492 19.4954 8.34841 19.5313 8.44531 19.5312H16.5547C16.6516 19.5313 16.7451 19.4954 16.817 19.4305C16.8889 19.3655 16.9341 19.2761 16.9437 19.1797L17.975 8.86719C18.0137 8.56449 18.169 8.28885 18.4079 8.09887C18.6467 7.9089 18.9502 7.81958 19.2538 7.8499C19.5575 7.88022 19.8373 8.0278 20.0339 8.26126C20.2304 8.49471 20.3281 8.79562 20.3062 9.1L19.275 19.4125C19.2083 20.0875 18.8928 20.7134 18.39 21.1686C17.8871 21.6238 17.2329 21.8756 16.5547 21.875H8.44531C7.76751 21.8749 7.1139 21.6231 6.61126 21.1684C6.10862 20.7137 5.79278 20.0885 5.725 19.4141L4.69375 9.10156C4.67418 8.94641 4.68586 8.78891 4.72811 8.63834C4.77036 8.48777 4.84232 8.34717 4.93974 8.22485C5.03717 8.10252 5.1581 8.00093 5.29539 7.92606C5.43269 7.85119 5.58359 7.80456 5.73919 7.78892C5.89479 7.77328 6.05195 7.78894 6.2014 7.83497C6.35086 7.88101 6.48958 7.9565 6.60941 8.05698C6.72924 8.15747 6.82774 8.28092 6.89912 8.42007C6.97049 8.55922 7.01329 8.71124 7.025 8.86719ZM10.1562 1.17188V3.125H14.8438V1.17188C14.8438 1.06827 14.8026 0.968918 14.7293 0.895662C14.6561 0.822405 14.5567 0.78125 14.4531 0.78125H10.5469C10.4433 0.78125 10.3439 0.822405 10.2707 0.895662C10.1974 0.968918 10.1562 1.06827 10.1562 1.17188Z" fill="#003049"/>
</g>
<defs>
<clipPath id="clip0_518_46">
<rect width="25" height="25" fill="white"/>
</clipPath>
</defs>
</svg>
