<svg width="26" height="30" viewBox="0 0 26 30" fill="none" xmlns="http://www.w3.org/2000/svg">
<mask id="path-1-inside-1_541_68" fill="white">
<path d="M25.3101 27.1158L5.31717 15.8489C4.8787 15.6031 4.6306 15.2676 4.62674 14.9151C4.62289 14.5626 4.86358 14.2217 5.29657 13.9663L25.0338 2.26462C25.4666 2.00773 25.7069 1.66571 25.703 1.31221C25.6992 0.958721 25.4514 0.622041 25.0132 0.374679C24.799 0.252854 24.5437 0.156966 24.2621 0.0926689C23.9806 0.0283704 23.6785 -0.00303536 23.3737 0.000300282C23.0689 0.00363592 22.7676 0.0416455 22.4876 0.112091C22.2075 0.182535 21.9543 0.283989 21.7429 0.410471L2.00557 12.1097C0.708644 12.8803 -0.0114835 13.9058 0.000116591 14.9657C0.0117167 16.0256 0.754118 17.0351 2.0676 17.7771L22.0562 29.0416C22.2704 29.1638 22.526 29.26 22.808 29.3245C23.09 29.389 23.3925 29.4205 23.6978 29.4172C24.0031 29.4139 24.3049 29.3757 24.5854 29.3051C24.8659 29.2344 25.1194 29.1326 25.3308 29.0058C25.7636 28.7489 26.0039 28.4068 26 28.0533C25.9961 27.6998 25.7484 27.3632 25.3101 27.1158Z"/>
</mask>
<path d="M25.3101 27.1158L5.31717 15.8489C4.8787 15.6031 4.6306 15.2676 4.62674 14.9151C4.62289 14.5626 4.86358 14.2217 5.29657 13.9663L25.0338 2.26462C25.4666 2.00773 25.7069 1.66571 25.703 1.31221C25.6992 0.958721 25.4514 0.622041 25.0132 0.374679C24.799 0.252854 24.5437 0.156966 24.2621 0.0926689C23.9806 0.0283704 23.6785 -0.00303536 23.3737 0.000300282C23.0689 0.00363592 22.7676 0.0416455 22.4876 0.112091C22.2075 0.182535 21.9543 0.283989 21.7429 0.410471L2.00557 12.1097C0.708644 12.8803 -0.0114835 13.9058 0.000116591 14.9657C0.0117167 16.0256 0.754118 17.0351 2.0676 17.7771L22.0562 29.0416C22.2704 29.1638 22.526 29.26 22.808 29.3245C23.09 29.389 23.3925 29.4205 23.6978 29.4172C24.0031 29.4139 24.3049 29.3757 24.5854 29.3051C24.8659 29.2344 25.1194 29.1326 25.3308 29.0058C25.7636 28.7489 26.0039 28.4068 26 28.0533C25.9961 27.6998 25.7484 27.3632 25.3101 27.1158Z" fill="#EE9648"/>
<path d="M25.3101 27.1158L30.7697 17.4428L30.7633 17.4392L25.3101 27.1158ZM5.31717 15.8489L10.7703 6.17232L10.7595 6.16622L10.7487 6.16014L5.31717 15.8489ZM4.62674 14.9151L-6.47997 15.0366L4.62674 14.9151ZM5.29657 13.9663L10.9388 23.5339L10.95 23.5273L10.9611 23.5207L5.29657 13.9663ZM25.0338 2.26462L30.6984 11.819L30.7038 11.8158L25.0338 2.26462ZM25.703 1.31221L36.8097 1.19065L25.703 1.31221ZM25.0132 0.374679L19.5201 10.0287L19.5368 10.0382L19.5535 10.0477L25.0132 0.374679ZM23.3737 0.000300282L23.4953 11.107L23.3737 0.000300282ZM21.7429 0.410471L27.4065 9.9654L27.4263 9.95371L27.4459 9.94195L21.7429 0.410471ZM2.00557 12.1097L-3.6581 2.5548L-3.66795 2.56065L2.00557 12.1097ZM2.0676 17.7771L-3.39557 27.4481L-3.38558 27.4537L2.0676 17.7771ZM22.0562 29.0416L27.5607 19.3941L27.5351 19.3795L27.5094 19.365L22.0562 29.0416ZM23.6978 29.4172L23.8194 40.5239L23.6978 29.4172ZM25.3308 29.0058L19.6608 19.4546L19.6386 19.4677L19.6165 19.481L25.3308 29.0058ZM26 28.0533L37.1067 27.9318L26 28.0533ZM30.7633 17.4392L10.7703 6.17232L-0.136002 25.5255L19.857 36.7924L30.7633 17.4392ZM10.7487 6.16014C12.1372 6.93853 15.6765 9.5935 15.7335 14.7935L-6.47997 15.0366C-6.41534 20.9416 -2.37977 24.2677 -0.114328 25.5377L10.7487 6.16014ZM15.7335 14.7935C15.7904 19.9935 12.3099 22.7253 10.9388 23.5339L-0.345687 4.39875C-2.58279 5.71802 -6.54459 9.13167 -6.47997 15.0366L15.7335 14.7935ZM10.9611 23.5207L30.6984 11.819L19.3693 -7.28978L-0.367989 4.41193L10.9611 23.5207ZM30.7038 11.8158C32.9426 10.4867 36.8741 7.07185 36.8097 1.19065L14.5963 1.43377C14.5397 -3.74043 17.9905 -6.47129 19.3638 -7.28654L30.7038 11.8158ZM36.8097 1.19065C36.7454 -4.69057 32.7401 -8.01859 30.4728 -9.2983L19.5535 10.0477C18.1628 9.26267 14.6529 6.60801 14.5963 1.43377L36.8097 1.19065ZM30.5062 -9.27933C29.202 -10.0214 27.8977 -10.4704 26.7349 -10.736L21.7893 10.9213C21.1896 10.7843 20.3961 10.5271 19.5201 10.0287L30.5062 -9.27933ZM26.7349 -10.736C25.5568 -11.005 24.3815 -11.1188 23.2522 -11.1064L23.4953 11.107C22.9755 11.1127 22.4043 11.0617 21.7893 10.9213L26.7349 -10.736ZM23.2522 -11.1064C22.1228 -11.0941 20.9502 -10.9546 19.7783 -10.6598L25.1968 10.884C24.585 11.0378 24.0151 11.1013 23.4953 11.107L23.2522 -11.1064ZM19.7783 -10.6598C18.6216 -10.3689 17.3275 -9.89146 16.0398 -9.121L27.4459 9.94195C26.581 10.4594 25.7933 10.734 25.1968 10.884L19.7783 -10.6598ZM16.0792 -9.14446L-3.65809 2.5548L7.66924 21.6647L27.4065 9.9654L16.0792 -9.14446ZM-3.66795 2.56065C-6.77113 4.40438 -11.1787 8.5028 -11.1066 15.0873L11.1068 14.8442C11.1557 19.3089 8.18842 21.3562 7.6791 21.6588L-3.66795 2.56065ZM-11.1066 15.0873C-11.0345 21.6718 -6.53835 25.6727 -3.39557 27.4481L7.53077 8.10616C8.04658 8.39754 11.058 10.3794 11.1068 14.8442L-11.1066 15.0873ZM-3.38558 27.4537L16.603 38.7182L27.5094 19.365L7.52079 8.10052L-3.38558 27.4537ZM16.5518 38.6891C17.8586 39.4347 19.1658 39.8856 20.3306 40.1521L25.2854 18.497C25.8863 18.6344 26.6822 18.8929 27.5607 19.3941L16.5518 38.6891ZM20.3306 40.1521C21.5108 40.4221 22.6882 40.5363 23.8194 40.5239L23.5763 18.3105C24.0969 18.3048 24.6692 18.3559 25.2854 18.497L20.3306 40.1521ZM23.8194 40.5239C24.9506 40.5115 26.1253 40.3716 27.2992 40.0758L21.8716 18.5343C22.4846 18.3799 23.0556 18.3162 23.5763 18.3105L23.8194 40.5239ZM27.2992 40.0758C28.4579 39.7839 29.7549 39.3046 31.0451 38.5305L19.6165 19.481C20.4839 18.9607 21.2739 18.6849 21.8716 18.5343L27.2992 40.0758ZM31.0008 38.5569C33.2396 37.2279 37.1711 33.813 37.1067 27.9318L14.8933 28.1749C14.8367 23.0007 18.2875 20.2698 19.6608 19.4546L31.0008 38.5569ZM37.1067 27.9318C37.0423 22.0506 33.0371 18.7225 30.7697 17.4428L19.8505 36.7888C18.4597 36.0038 14.9499 33.3491 14.8933 28.1749L37.1067 27.9318Z" fill="#EE9648" mask="url(#path-1-inside-1_541_68)"/>
</svg>
