<svg width="22" height="24" viewBox="0 0 22 24" fill="none" xmlns="http://www.w3.org/2000/svg">
<path d="M2.53786 24C1.83595 24 1.23724 23.7902 0.741714 23.3707C0.247238 22.9511 0 22.4431 0 21.8467V10.1533C0 9.55778 0.247238 9.04978 0.741714 8.62933C1.23619 8.20978 1.8349 8 2.53786 8H4.71429V5.33333C4.71429 3.848 5.324 2.58756 6.54343 1.552C7.76286 0.516446 9.24838 -0.000887745 11 1.14351e-06C12.7506 1.14351e-06 14.2361 0.517334 15.4566 1.552C16.677 2.58667 17.2868 3.84711 17.2857 5.33333V8H19.4621C20.164 8 20.7628 8.20978 21.2583 8.62933C21.7528 9.04889 22 9.55689 22 10.1533V21.8467C22 22.4422 21.7528 22.9502 21.2583 23.3707C20.7638 23.7902 20.1651 24 19.4621 24H2.53786ZM2.53786 22.6667H19.4621C19.744 22.6667 19.9755 22.5898 20.1567 22.436C20.338 22.2822 20.4286 22.0858 20.4286 21.8467V10.1533C20.4286 9.91422 20.338 9.71778 20.1567 9.564C19.9755 9.41022 19.744 9.33333 19.4621 9.33333H2.53786C2.25605 9.33333 2.02452 9.41022 1.84329 9.564C1.66205 9.71778 1.57143 9.91422 1.57143 10.1533V21.8467C1.57143 22.0858 1.66205 22.2822 1.84329 22.436C2.02452 22.5898 2.25605 22.6667 2.53786 22.6667ZM11 18C11.6631 18 12.2215 17.8071 12.6751 17.4213C13.1298 17.0364 13.3571 16.5627 13.3571 16C13.3571 15.4373 13.1298 14.9636 12.6751 14.5787C12.2215 14.1929 11.6631 14 11 14C10.3369 14 9.77848 14.1929 9.32486 14.5787C8.87019 14.9636 8.64286 15.4373 8.64286 16C8.64286 16.5627 8.87019 17.0364 9.32486 17.4213C9.77848 17.8071 10.3369 18 11 18ZM6.28571 8H15.7143V5.33333C15.7143 4.22222 15.256 3.27778 14.3393 2.5C13.4226 1.72222 12.3095 1.33333 11 1.33333C9.69048 1.33333 8.57738 1.72222 7.66071 2.5C6.74405 3.27778 6.28571 4.22222 6.28571 5.33333V8Z" fill="#EE9648"/>
</svg>
