<svg width="36" height="43" viewBox="0 0 36 43" fill="none" xmlns="http://www.w3.org/2000/svg">
<g clip-path="url(#clip0_620_103)">
<path d="M32.5417 37.1395C28.5974 40.6142 22.8869 42.459 17.9662 42.459C11.0677 42.459 4.85994 39.422 0.164191 34.3523C-0.202559 33.9575 0.121441 33.4124 0.564691 33.7239C5.63394 37.2496 11.9069 39.3629 18.3824 39.3629C22.7497 39.3629 27.5512 38.2808 31.9747 36.0386C32.6362 35.7029 33.1987 36.5676 32.5439 37.1369L32.5417 37.1395Z" fill="#003049"/>
<path d="M34.1797 34.9081C33.6735 34.1374 30.8475 34.5402 29.574 34.7228C29.187 34.7738 29.1307 34.3791 29.475 34.0837C31.7317 32.196 35.4307 32.7411 35.8605 33.3694C36.297 34.0085 35.748 38.4284 33.6307 40.5444C33.3067 40.872 32.9985 40.6948 33.138 40.2678C33.624 38.85 34.686 35.6788 34.1797 34.9054V34.9081ZM24.8692 31.7878L24.876 31.7959C25.7467 30.8802 27.315 29.2449 28.2015 28.3641C28.5525 28.0285 28.4895 27.4673 28.215 26.9974C27.4207 25.687 26.577 24.6236 26.577 22.2069V14.1511C26.577 10.7355 26.775 7.60452 24.6712 5.25493C23.0107 3.35915 20.2545 2.68784 18.1462 2.68784C14.0265 2.68784 9.42749 4.52454 8.46449 10.6013C8.35874 11.2484 8.75924 11.5921 9.11024 11.6834L13.3087 12.2285C13.7025 12.2043 13.9837 11.7425 14.0602 11.2726C14.418 9.18344 15.8895 8.16842 17.541 8.16842C18.4342 8.16842 19.4467 8.5551 19.9732 9.51104C20.5785 10.5771 20.4997 12.0298 20.4997 13.2623V13.9336C17.9887 14.2693 14.706 14.4868 12.357 15.722C9.64349 17.1237 7.73774 19.9754 7.73774 24.1725C7.73774 29.543 10.5705 32.2282 14.22 32.2282C17.3002 32.2282 18.981 31.3636 21.357 28.4608C22.1445 29.8196 22.3987 30.4828 23.8387 31.9087C23.9988 32.0187 24.1837 32.0664 24.3676 32.0452C24.5514 32.0241 24.7252 31.935 24.8647 31.7905L24.8692 31.7878ZM20.5042 19.1833C20.5042 21.1972 20.547 22.8755 19.6965 24.6639C19.008 26.1247 17.9167 27.0135 16.7017 27.0135C15.0435 27.0135 14.0715 25.5017 14.0715 23.2702C14.0715 18.8638 17.3835 18.0662 20.5132 18.0662V19.1833H20.5042Z" fill="#003049"/>
</g>
<defs>
<clipPath id="clip0_620_103">
<rect width="35.7143" height="42.623" fill="white" transform="scale(1.008)"/>
</clipPath>
</defs>
</svg>
