<svg width="30" height="30" viewBox="0 0 30 30" fill="none" xmlns="http://www.w3.org/2000/svg">
<path d="M8.67266 4.89435L8.65557 3.97389L7.89174 4.48781C7.44578 4.78786 7.02506 5.13135 6.63061 5.49342C1.49227 10.2099 1.14894 18.231 5.86546 23.3694C10.582 28.5077 18.6031 28.8511 23.7414 24.1345C24.1359 23.7725 24.5141 23.3826 24.8511 22.9639L25.4284 22.2468L24.5128 22.1511C20.2766 21.7084 16.263 19.7382 13.3174 16.5292C10.3718 13.3201 8.75176 9.15286 8.67266 4.89435ZM11.1785 0.697615C9.92528 5.65081 11.1034 11.1075 14.8168 15.1529C18.5301 19.1983 23.8661 20.8385 28.9083 20.0131C28.124 22.0919 26.8621 24.0326 25.1177 25.6339C19.1452 31.1161 9.8483 30.7181 4.36611 24.7456C-1.11607 18.7732 -0.718133 9.47626 5.25435 3.99408C6.99879 2.39284 9.0403 1.30147 11.1785 0.697615Z" fill="#003049" stroke="#003049"/>
</svg>
