<svg width="31" height="28" viewBox="0 0 31 28" fill="none" xmlns="http://www.w3.org/2000/svg">
<path d="M16.2621 15.1667L13.2912 17.8384C13.1702 17.9468 13.0741 18.0759 13.0085 18.218C12.9429 18.3602 12.9092 18.5127 12.9092 18.6667C12.9092 18.8207 12.9429 18.9732 13.0085 19.1154C13.0741 19.2575 13.1702 19.3866 13.2912 19.495C13.4113 19.6044 13.5542 19.6912 13.7116 19.7504C13.869 19.8096 14.0378 19.8401 14.2083 19.8401C14.3788 19.8401 14.5477 19.8096 14.7051 19.7504C14.8625 19.6912 15.0053 19.6044 15.1254 19.495L20.2921 14.8284C20.4097 14.7174 20.5018 14.5866 20.5633 14.4434C20.6925 14.1593 20.6925 13.8407 20.5633 13.5567C20.5018 13.4135 20.4097 13.2827 20.2921 13.1717L15.1254 8.50503C15.005 8.39626 14.862 8.30997 14.7046 8.2511C14.5473 8.19223 14.3786 8.16193 14.2083 8.16193C14.038 8.16193 13.8693 8.19223 13.712 8.2511C13.5546 8.30997 13.4117 8.39626 13.2912 8.50503C13.1708 8.61381 13.0753 8.74295 13.0101 8.88508C12.9449 9.0272 12.9114 9.17953 12.9114 9.33337C12.9114 9.4872 12.9449 9.63953 13.0101 9.78166C13.0753 9.92378 13.1708 10.0529 13.2912 10.1617L16.2621 12.8334H3.87498C3.53241 12.8334 3.20387 12.9563 2.96163 13.1751C2.7194 13.3939 2.58331 13.6906 2.58331 14C2.58331 14.3095 2.7194 14.6062 2.96163 14.825C3.20387 15.0438 3.53241 15.1667 3.87498 15.1667H16.2621ZM15.5 2.33337C13.086 2.32363 10.7173 2.92512 8.6625 4.06959C6.60775 5.21407 4.9492 6.85573 3.87498 8.80837C3.72082 9.08685 3.69546 9.40923 3.80446 9.7046C3.91347 9.99997 4.14792 10.2441 4.45623 10.3834C4.76454 10.5226 5.12147 10.5455 5.44849 10.4471C5.7755 10.3486 6.04582 10.1368 6.19998 9.85837C7.01656 8.36891 8.25868 7.10342 9.79798 6.19269C11.3373 5.28195 13.1179 4.75901 14.9559 4.67789C16.7938 4.59678 18.6224 4.96044 20.2527 5.7313C21.883 6.50215 23.2558 7.65224 24.2292 9.0627C25.2027 10.4732 25.7415 12.0928 25.7899 13.7543C25.8384 15.4158 25.3947 17.0589 24.5049 18.5136C23.615 19.9684 22.3111 21.1822 20.728 22.0295C19.145 22.8768 17.3401 23.327 15.5 23.3334C13.574 23.3409 11.6846 22.8578 10.0487 21.9395C8.4129 21.0212 7.09685 19.7049 6.25165 18.1417C6.09749 17.8632 5.82717 17.6515 5.50015 17.553C5.17314 17.4546 4.81621 17.4775 4.5079 17.6167C4.19958 17.7559 3.96513 18.0001 3.85613 18.2955C3.74712 18.5908 3.77249 18.9132 3.92665 19.1917C4.95072 21.0531 6.50678 22.6336 8.43388 23.7698C10.361 24.9059 12.5891 25.5563 14.8879 25.6539C17.1866 25.7514 19.4725 25.2924 21.509 24.3245C23.5455 23.3565 25.2588 21.9147 26.4715 20.1482C27.6842 18.3816 28.3524 16.3545 28.407 14.2765C28.4615 12.1985 27.9004 10.1451 26.7817 8.32867C25.663 6.51222 24.0274 4.9987 22.0439 3.94466C20.0605 2.89062 17.8013 2.33434 15.5 2.33337Z" fill="#003049"/>
</svg>
