<svg width="53" height="53" viewBox="0 0 53 53" fill="none" xmlns="http://www.w3.org/2000/svg">
<g clip-path="url(#clip0_389_275)">
<path d="M26.606 44.52C16.642 44.52 8.586 36.464 8.586 26.5C8.586 16.536 16.642 8.47998 26.606 8.47998C36.57 8.47998 44.626 16.536 44.626 26.5C44.626 36.464 36.464 44.52 26.606 44.52ZM26.606 10.6C17.808 10.6 10.706 17.702 10.706 26.5C10.706 35.298 17.808 42.4 26.606 42.4C35.404 42.4 42.506 35.298 42.506 26.5C42.506 17.702 35.298 10.6 26.606 10.6Z" fill="#003049"/>
<path d="M15.688 39.538L13.78 38.69C14.31 37.418 16.006 36.676 17.808 35.828C19.61 34.98 21.836 34.026 21.836 32.86V31.27C21.2 30.74 20.14 29.574 19.928 27.878C19.398 27.348 18.55 26.394 18.55 25.122C18.55 24.38 18.868 23.744 19.08 23.32C18.868 22.472 18.656 20.882 18.656 19.61C18.656 15.476 21.518 12.72 26.076 12.72C27.348 12.72 28.938 13.038 29.786 13.992C31.8 14.416 33.496 16.748 33.496 19.61C33.496 21.412 33.178 22.896 32.966 23.638C33.178 23.956 33.39 24.486 33.39 25.122C33.39 26.5 32.648 27.454 32.012 27.878C31.8 29.574 30.846 30.634 30.21 31.164V32.86C30.21 33.814 32.118 34.556 33.814 35.192C35.828 35.934 37.948 36.782 38.69 38.478L36.676 39.22C36.358 38.372 34.662 37.736 33.072 37.206C30.74 36.358 28.09 35.404 28.09 32.966V30.21L28.62 29.892C28.62 29.892 29.892 29.044 29.892 27.348V26.606L30.528 26.288C30.634 26.288 31.164 25.97 31.164 25.122C31.164 24.91 30.952 24.592 30.846 24.486L30.422 24.062L30.634 23.532C30.634 23.532 31.164 21.836 31.164 19.716C31.164 17.702 29.998 16.218 29.044 16.218H28.408L28.09 15.688C28.09 15.264 27.348 14.84 26.076 14.84C22.79 14.84 20.776 16.642 20.776 19.61C20.776 20.988 21.306 23.32 21.306 23.32L21.412 23.85L20.988 24.38C20.882 24.38 20.67 24.698 20.67 25.122C20.67 25.652 21.306 26.288 21.624 26.5L22.048 26.818V27.348C22.048 28.938 23.426 29.786 23.426 29.892L23.956 30.21V32.966C23.956 35.51 21.2 36.782 18.656 37.842C17.49 38.266 15.9 39.008 15.688 39.538Z" fill="#003049"/>
</g>
<defs>
<clipPath id="clip0_389_275">
<rect width="53" height="53" fill="white"/>
</clipPath>
</defs>
</svg>
